<?xml version="1.0" encoding="iso-8859-1"?>
<!-- Generator: Adobe Illustrator 18.1.1, SVG Export Plug-In . SVG Version: 6.00 Build 0)  -->
<svg version="1.1" id="Capa_1" xmlns="http://www.w3.org/2000/svg" xmlns:xlink="http://www.w3.org/1999/xlink" x="0px" y="0px"
	 viewBox="0 0 302.325 302.325" style="enable-background:new 0 0 302.325 302.325;" xml:space="preserve">
<g>
	<g>
		<circle style="fill:#8f8f8f;" cx="139.572" cy="117.68" r="20.679"/>
		<path style="fill:#8f8f8f;" d="M261.048,53.705H43.485c-3.008,0-5.439,2.431-5.439,5.439v190.824c0,0.087,0.044,0.158,0.049,0.239
			c0.027,0.555,0.141,1.088,0.321,1.588c0.054,0.152,0.098,0.305,0.169,0.451c0.044,0.098,0.06,0.201,0.109,0.294
			c0.25,0.457,0.56,0.87,0.914,1.229c0.054,0.054,0.125,0.092,0.185,0.147c0.397,0.37,0.854,0.669,1.349,0.908
			c0.152,0.071,0.305,0.141,0.462,0.201c0.587,0.218,1.213,0.381,1.876,0.381h83.397h12.695h121.476
			c0.664,0,1.284-0.158,1.876-0.381c0.152-0.054,0.299-0.114,0.446-0.185c0.555-0.267,1.082-0.587,1.512-1.017
			c0.016-0.016,0.027-0.033,0.038-0.049c0.321-0.326,0.604-0.691,0.838-1.093c0.071-0.125,0.098-0.261,0.158-0.386
			c0.076-0.152,0.136-0.31,0.196-0.468c0.212-0.577,0.364-1.18,0.37-1.828c0-0.011,0.005-0.022,0.005-0.033V59.144
			C266.487,56.137,264.056,53.705,261.048,53.705z M53.586,244.529l48.076-72.878l42.582,38.101l-20.054,34.783H53.586V244.529z
			 M139.572,244.529h-2.828l57.23-99.268l57.627,99.268H139.572z M198.667,131.669c-0.979-1.681-2.768-2.709-4.705-2.709
			c0,0-0.005,0-0.011,0c-1.936,0.005-3.737,1.039-4.699,2.725l-39.455,68.434l-45.574-40.777c-1.18-1.055-2.774-1.512-4.329-1.343
			c-1.566,0.207-2.97,1.082-3.84,2.399L48.924,231.84V64.583h206.684v165.179L198.667,131.669z"/>
	</g>
</g>
<g>
</g>
<g>
</g>
<g>
</g>
<g>
</g>
<g>
</g>
<g>
</g>
<g>
</g>
<g>
</g>
<g>
</g>
<g>
</g>
<g>
</g>
<g>
</g>
<g>
</g>
<g>
</g>
<g>
</g>
</svg>
