<?xml version="1.0" standalone="no"?>
<!DOCTYPE svg PUBLIC "-//W3C//DTD SVG 20010904//EN"
 "http://www.w3.org/TR/2001/REC-SVG-20010904/DTD/svg10.dtd">
<svg version="1.0" xmlns="http://www.w3.org/2000/svg"
 width="1200.000000pt" height="1200.000000pt" viewBox="0 0 1200.000000 1200.000000"
 preserveAspectRatio="xMidYMid meet">
<metadata>
Created by potrace 1.14, written by Peter Selinger 2001-2017
</metadata>
<g transform="translate(0.000000,1200.000000) scale(0.100000,-0.100000)"
fill="#000000" stroke="none">
<path d="M3019 11285 c-2 -2 -51 -6 -109 -10 -58 -4 -114 -8 -125 -10 -11 -1
-56 -5 -100 -10 -44 -4 -87 -9 -95 -10 -8 -1 -40 -6 -70 -10 -30 -4 -64 -9
-75 -11 -10 -2 -35 -6 -55 -9 -20 -3 -47 -7 -60 -10 -29 -6 -120 -22 -169 -30
-19 -3 -38 -8 -41 -10 -4 -3 -25 -7 -46 -11 -22 -3 -84 -17 -139 -31 -55 -14
-107 -26 -116 -28 -69 -14 -325 -90 -519 -155 -352 -117 -791 -297 -1184 -485
l-116 -55 0 -4230 0 -4231 28 15 c44 23 303 146 307 146 2 0 37 16 78 35 41
19 77 35 80 35 3 0 38 15 79 34 229 107 949 366 1113 400 11 3 90 23 175 44
150 39 368 86 447 97 21 3 49 8 63 11 46 8 65 11 115 18 28 4 61 9 75 11 29 5
87 11 185 20 39 4 81 9 95 11 132 22 772 22 935 0 17 -3 64 -7 105 -11 41 -3
86 -8 100 -10 14 -2 48 -6 75 -9 75 -10 163 -24 315 -52 47 -9 96 -18 110 -20
73 -14 374 -90 505 -129 251 -74 586 -194 783 -281 20 -9 46 -20 57 -24 11 -5
60 -27 108 -49 49 -23 91 -41 93 -41 5 0 385 -189 447 -223 26 -14 64 -39 85
-55 112 -88 458 -323 669 -455 244 -153 587 -337 793 -427 41 -18 89 -38 105
-45 292 -128 647 -223 970 -262 74 -8 399 -10 470 -3 398 45 692 142 1185 390
85 43 256 129 380 191 124 63 253 126 287 141 169 76 400 160 523 191 l55 13
3 4227 c1 2325 -1 4227 -5 4227 -48 -1 -320 -91 -468 -154 -16 -8 -50 -22 -75
-32 -25 -10 -238 -115 -475 -234 -236 -118 -452 -225 -480 -237 -27 -12 -77
-34 -110 -49 -128 -56 -392 -145 -474 -159 -19 -3 -37 -8 -41 -10 -8 -5 -173
-33 -235 -40 -27 -3 -72 -8 -100 -11 -66 -8 -313 -7 -395 1 -67 6 -235 30
-280 40 -14 3 -41 8 -60 11 -322 57 -929 303 -1290 523 -19 11 -42 24 -50 28
-103 46 -686 430 -883 581 -98 75 -586 314 -892 437 -49 20 -99 40 -110 45
-176 79 -796 269 -1025 314 -14 3 -61 12 -104 21 -44 8 -93 18 -110 21 -17 2
-38 7 -46 9 -8 2 -35 7 -60 10 -25 3 -72 10 -105 15 -33 5 -82 12 -110 15 -27
3 -63 7 -80 10 -16 2 -61 7 -100 11 -38 3 -88 8 -110 10 -51 6 -702 14 -706 9z"/>
</g>
</svg>
